<svg width="15" height="28" fill="none" xmlns="http://www.w3.org/2000/svg"><path d="M11.704 5.255c.998 0 1.997 0 2.697-.302.4-.804.599-1.91.599-3.017-.2 0-.1-.302-.2-.402 0-.201-.3-.201-.3-.403-.3-.2-.499-.402-.699-.603-.699-.201-1.398-.302-2.197-.503-.8 0-1.898-.1-2.598.1-2.597 0-3.995 1.107-5.294 2.414 0 .101 0 .202-.1.202-.6 1.609-.1 3.62-.2 5.632.1.402.1 1.005.2 1.408-.999.301-2.198.402-3.396.502-.3.302-.2 1.107-.2 1.71.1.604.3 1.106.4 1.61.2.2.599.402.799.502.1 0 .1.1.1.1.5.302 1.498 0 2.297.101-.1 2.012.3 3.923 0 5.733 0 .301.3.402.2.804 0 1.006-.1 2.012.2 2.716-.3.503-.5 1.005-.4 1.81.1 0 .1.201.1.302-.1.503.6.2.5.704.2.503-.4.2-.4.503v.905c.5.301 1.498.2 2.297.2.9-.401 2.198-.502 2.797-1.206.5.201.9 0 1.2-.201 0-.302.299-.302.199-.704 0-.302-.2-.503-.1-.905V22.05c-.2-2.313 0-4.928-.3-7.24.9-.101 1.898-.101 2.598-.403.4-.503.4-1.207.5-1.911.199-.201.199-.604.199-1.006.2-.2.1-.704.1-1.106-.1-.603-.2-1.307-.8-1.408-.898-.201-1.997.603-2.996.302 0-1.107-.3-2.313 0-3.42.799-.2 1.498-.402 2.197-.603zm-3.796 4.827c.1.302.3.503.4.704.099 0 .199 0 .199.1 1.199.101 2.198-.1 3.097-.3 0 1.005-.3 1.709-.5 2.513-.7 0-1.498.302-1.998.201-.3.202-.4.503-.6.704 0 .403.1.503 0 .805-.199.1-.099.604-.199.805v1.508c.1.302-.1.302-.1.503v3.52c-.1.302.1.302.1.503v3.017c.1.302-.1.805.1.905-.1.402-.4 0-.8.1-.499.101-.898.403-1.498.403.1-.402.3-.603.3-1.106 0-.402-.4-.302-.5-.503.2-.604.6-1.106.7-1.81.2-.503.7-1.308.3-1.81-.5-.101-.5.301-.8.402 0 .1 0 .2-.1.2 0 .101 0 .202-.1.202 0 .1-.2.1 0 0 0-.1 0-.201.1-.201 0-.1 0-.201.1-.201v-.302c.4-.604.7-1.207.8-2.011.2-.302.3-.704.4-1.006.199-.302.299-.905.1-1.207-.5 0-.8.302-.9.704-.3-.201.2-.402.1-.704.1-.201.2-.604.3-.805.2-.402.599-1.307 0-1.609-.4 0-.6.201-.7.503-.2.201-.4.402-.5.704-.399-.1-.099-.704-.199-1.106-.1-.503.1-.905 0-1.207-.6-.805-1.998-.1-3.196-.302-.1-.301-.2-1.005-.1-1.207.999-.1 2.497.201 3.196-.2 0-.101 0-.202.1-.202.1-.704-.3-1.006-.5-1.408.2-.804 0-2.011.1-3.017.2-.1.3-.402.5-.603.1-1.006.7-1.509.7-2.515-.3 0-.6-.1-.6.201-.3-.1-.4.503-.5.202-.1-.503.2-.604.3-1.006.6-.402 1.199-.805 1.898-1.207 1.698-.201 4.595-.402 6.094.201.1.604-.3.905-.2 1.509h-1.499c-1.098.2-1.997.704-2.996 1.005-.2.101-.3.302-.5.403 0 .402-.2.603-.3 1.005-.3 1.408-.1 2.615-.1 4.023z" fill="#231F20"/></svg>