<svg width="22" height="22" fill="none" xmlns="http://www.w3.org/2000/svg"><path d="M22 12.585c0-2.377-.302-4.755-.302-7.033 0-.793-.1-1.486-.201-2.278-.1-.298-.1-.694-.202-1.09-.302-.198-.2-.594-.503-.792-.402-.199-1.208-.1-1.71-.199-.705 0-1.31-.099-1.913-.198-1.913-.099-4.026-.099-6.04-.099C9.118.896 7.105.797 5.394.5H3.178c-.1 0-.1.1-.201.1-.604 0-1.107.197-1.61.296-.202.1-.403.198-.705.297-.1.199-.503.1-.604.397-.201.198.201.495 0 .594v.891c.201.1 0 .595.1.793v.99c0 1.288.101 2.378.101 3.666.504 2.773.403 6.438.101 9.31.201.595.403 1.09.503 1.685.302.495.302 1.09.705 1.486.503.198 1.208.198 1.912.198.403.099.705.297 1.107.297 2.819-.198 5.536-.198 8.455-.198 2.718.198 5.838.198 8.354-.198.201-.1.1-.495.201-.793-.1-.396.202-.396.202-.792.201-2.08.201-4.458.201-6.934zM8.915 6.443a9.485 9.485 0 012.416-.297c.705.1 1.309.297 1.912.496.101.198-.2.495.202.693.1 0 .1 0 .201.099.403 0 .805.198 1.107.396.503.1.503.495 1.107.396-.1.199-.1.496-.1.793.302 1.188.503 2.774.302 4.26-.202.197-.202.396-.302.693-.302.297-.504.792-.806 1.09-.1.197-.302.396-.503.495-.1.198-.201.495-.503.495-.302.198-.604 0-.805-.1-.403.199-.906.298-1.208.595l-2.416-.297c-.201-.1-.503-.297-.805-.297a2.198 2.198 0 00-.805-.495c-.1-.1-.302-.1-.503-.199-.202 0-.202-.198-.504-.198-.1-.396-.402-.594-.503-1.09-.201-.296-.302-.792-.503-1.188 0-1.387.1-2.675.402-3.764.302-.594.806-1.09 1.108-1.684.2 0 .402-.1.402-.297.302.099.403-.1.705-.1.201 0 .201-.296.402-.495zM7.205 3.77c-.101-.297-.101-.694-.101-1.09 0-.297.302-.297.302-.495 0-.1-.101-.1-.202-.1.101-.098.705-.098.806 0 .1.496-.403.496-.504.694 0 .198.302 0 .504.1 0 .89-.101 1.485 0 2.179h-.504c0 .198.202.198.504.198-.101.297.1.396.1.594-.201.198-.704 0-1.107.1 0-.595.302-1.388.201-2.18zM6.5 2.184c.1 0 .1 0 .201.099.201.297 0 .693-.1.892-.202-.199 0-.694-.101-.991zm.2 1.783c-.1-.1-.201-.198-.201-.495.201.099.201.297.201.495zm0 1.387c-.1.099-.1 0-.1-.198.1-.1.1.099.1.198zm-.201.198c.201 0 .1.198.201.198 0 .198-.302.198-.403.1.101-.1.202-.2.202-.298zM4.185 4.363c0-.099 0-.198-.1-.198-.102-.693.1-1.387 0-1.981.301-.198.804 0 1.106-.1v1.09c-.1.1-.201.1-.402.1-.101.297.302.099.402.297 0 .891-.1 1.783.202 2.377-.604-.099-.906.1-1.41.1.101-.595 0-1.388.504-1.586 0-.099-.302 0-.302-.099zm-.503 0c-.202 0-.202-.495-.101-.594.302 0 .201.495.1.594zm-.202.99c.1-.296 0-.296.1-.693.202 0 .202.793-.1.694zm.202-2.08c-.302.1-.302-.297-.202-.396.302 0 .403.298.202.397zm0-1.089c0 .198-.101.198-.101.297-.201 0-.1-.198-.201-.198.1-.099.2-.099.302-.099zM3.48 5.849c.1 0 .1.297-.1.198.1 0 .1-.099.1-.198zm-.704-3.665a.202.202 0 01-.403 0h.403zm-1.007.099c0 .198-.302.198-.402.396-.202-.198.1-.495.402-.396zm-.402.693c.2-.198.503-.396.704-.594 0-.099.1-.099.1-.198h.202c.1.396-.302.297-.302.495 0 .1-.1.1-.1.198 0 .298.1.595.1.99-.302 0-.302.298-.604.199 0-.396-.201-.594-.1-1.09zm.1 3.27V4.66c.202-.198.403-.396.604-.495.302.495.201 1.387.503 1.882-.402.1-.805.1-1.107.198zM19.786 17.24c-.101.99-.202 1.98-.403 2.773-2.919.1-6.039 0-8.958.198-.201 0-.302 0-.201-.198-.302 0-.302.198-.503.198.2-.297.402-.891.2-1.288-.804 0-.804.793-1.106 1.288-.705-.099-1.107.1-1.812.1.201-.694.705-.991.906-1.685-.403-.495-1.007.1-1.208.496-.201.495-.604.792-.805 1.287H4.889c.202-.495.504-.891.806-1.386.2-.496.603-.694.704-1.387-.201-.297-.402 0-.704 0-.101.198-.302.297-.403.495-.201.396-.503.694-.705 1.09-.2.198-.302 0-.503.198-.402.297-.604.693-1.006.99-.202-.099 0-.396.2-.396 0-.198-.1-.495.102-.594.1-.396.2-.595.402-.892.1-.693.503-1.188.705-1.882-.604.1-.705.595-1.007.99-.201.397-.503.793-.704 1.288-.202-.098 0-.594-.101-.792.1-.594.302-1.09.403-1.684.1-.198.2-.495.2-.792.202-.199 0-.595-.1-.793-.201 0-.402.1-.503.297-.201 0-.201.496-.302.297 0-2.575-.503-4.754-.503-7.33 0-.297-.201-.396-.201-.693 1.61 0 3.12.099 4.83.198-.1.1-.2.297-.301.396-.1.1-.201.198-.403.297-.604 1.684-1.006 3.963-.604 6.142.202.594.604.99 1.007 1.387.906.495 1.61 1.09 2.516 1.684 1.711.396 3.825.396 5.536 0 .201-.1.503-.198.704-.396 1.41-1.19 2.819-2.477 3.02-4.854V10.9c-.201-1.585-.705-2.873-1.711-3.566.302-.198 1.107 0 1.711.099h.704c.403 0 .906-.1 1.41 0 .1.198.1.495.2.792-.1 1.684-.2 3.27-.2 5.052.1.496.1.99.2 1.387-.2.793-.301 1.684-.502 2.576zm.402-11.095c-.604-.099-1.207-.297-1.912-.396.1-.297.805 0 1.006-.198.403-.198.302-.892.302-1.486 0-.297.101-.594.101-1.09-.403-.99-1.812-.396-2.919-.495-.201.694-.503 1.783-.302 2.675.202.495 1.007.297 1.51.495-.1.297-.705.099-1.006.099-.302-.1-.705-.1-1.007-.198-2.315.099-4.328 0-6.542.198.1-1.189.1-2.476-.101-3.566h3.12c-.302.396-.906.495-1.308.792-.403.199-.906.496-1.107.892.2.099.503-.198.805-.396.402-.1.503-.397.805-.496.403-.396 1.107-.594 1.711-.891.403 0 .705 0 1.007.099 1.308 0 2.516.099 3.824.099.604.1 1.51.1 2.013.297l.302.892c-.1.99-.302 1.783-.302 2.674zM14.25 2.481c.1-.099 0-.099 0 0zm0 0c-.503.198-1.007.297-1.41.694.504-.199 1.108-.298 1.41-.694zm1.107.594c.1-.099 0-.099 0 0zm-1.812.892c.705-.198 1.208-.594 1.711-.892-.402 0-.604.298-1.006.397-.1.198-.503.198-.705.495zm-.704-.792c-.1 0 .1.099 0 0zm-.604.594c.1-.1 0-.1 0 0zm-.1.099c.1 0 .1-.1 0 0 0-.1 0-.1 0 0zm-.101 0c.1 0 .1 0 0 0 0-.1 0 0 0 0zm-.806.594c.302-.099.604-.297.806-.594-.302.198-.604.396-.806.594zm2.315.99c.504 0 .705-.395 1.208-.494.302-.298.805-.397 1.007-.793-.604 0-.806.396-1.208.495-.302.397-.805.496-1.007.793zm-2.315-.99c-.302 0 0 .297 0 0zm-.604.396c.101 0 .202 0 0 0 .101-.099 0 0 0 0zm2.92.595c-.202.099 0 .099 0 0zm-1.208 1.783c-.202-.198-.705-.198-1.007-.396-.704 0-1.208.099-1.711.198-.302.198-.604.297-.906.495-.302.198-.403.396-.805.495-.201.198-.403.496-.705.595 0 .198-.201.297-.302.396-.1.099-.1.297-.2.396 0 .1 0 .297-.102.297.101 1.486.302 2.873.705 4.16.302.595 1.006.793 1.41 1.288.603.297 1.308.397 2.113.496.302-.1.604-.1.906-.1 1.207-.197 2.113-.693 2.818-1.386.1-.297.302-.495.503-.694-.302-.693.302-1.09.503-1.585 0-1.287-.201-2.476-.604-3.367-.302-.595-.905-.793-1.409-1.09-.1 0-.201 0-.201-.1-.201-.098-.704-.197-1.006-.098zm-3.423 4.358c-.1-.099-.1-.198-.2-.396.301-.099.2.198.2.396zm.101.298c0-.1.1 0 0 0 0 .198 0 .099 0 0zm.403-2.08c0-.1.1 0 0 0 .1.098 0 .098 0 0zm1.71-2.08c-.2.296 0 .593.101.792-.302 0-.604-.793-.1-.793zm.403 3.862c-.1 0 0 0 0 0 .101 0 0 .1 0 0zm.705 2.873c0-.1.1 0 .201 0 0 .099-.201.099-.201 0zm2.214-2.476c-.201-.1-.1.198-.402.198.1-.198.1-.297.2-.496.202 0 .303.1.202.298zm-1.107-3.765c.201.1.403.199.604.397.1.198.201.396.402.495.101.792.202 1.486.202 2.377-.302.1-.403.298-.705.397-.805 0-1.409-.199-1.912-.496-.201-.297-.403-.495-.503-.792v-1.09c.201-.198.302-.396.503-.594.201-.1.503-.198.503-.595 0-.099-.1-.099-.1-.198.2 0 .2.198.402.198.201 0 .302-.198.604-.099z" fill="#231F20"/></svg>