<svg width="24" height="24" viewBox="0 0 24 24" fill="none" xmlns="http://www.w3.org/2000/svg">
<path d="M21.8438 20.25H2.15625C0.967312 20.25 0 19.2827 0 18.0938V5.90625C0 4.71731 0.967312 3.75 2.15625 3.75H21.8438C23.0327 3.75 24 4.71731 24 5.90625V18.0938C24 19.2827 23.0327 20.25 21.8438 20.25ZM2.15625 5.25C1.79438 5.25 1.5 5.54438 1.5 5.90625V18.0938C1.5 18.4556 1.79438 18.75 2.15625 18.75H21.8438C22.2056 18.75 22.5 18.4556 22.5 18.0938V5.90625C22.5 5.54438 22.2056 5.25 21.8438 5.25H2.15625Z" fill="#0D0C22"/>
<path d="M17.1421 14.1428C16.9796 14.1428 16.8159 14.0902 16.6783 13.9818C16.353 13.7253 16.2972 13.2537 16.5536 12.9284C16.7639 12.6618 16.875 12.3408 16.875 12.0001C16.875 11.6595 16.7639 11.3384 16.5537 11.0718C16.2972 10.7465 16.3531 10.2749 16.6783 10.0184C17.0036 9.76207 17.4752 9.81781 17.7317 10.1431C18.1465 10.6694 18.375 11.3289 18.375 12.0001C18.375 12.6713 18.1465 13.3308 17.7316 13.8571C17.5836 14.0448 17.364 14.1428 17.1421 14.1428Z" fill="#0D0C22"/>
<path d="M19.0037 16.0042C18.8253 16.0042 18.6462 15.9409 18.503 15.8124C18.1947 15.5357 18.1691 15.0615 18.4457 14.7533C19.1252 13.996 19.4994 13.0181 19.4994 11.9996C19.4994 10.9811 19.1252 10.0032 18.4457 9.24601C18.1691 8.93771 18.1947 8.46353 18.503 8.18692C18.8113 7.91031 19.2854 7.9359 19.5621 8.2442C20.4889 9.27704 20.9994 10.6108 20.9994 11.9996C20.9994 13.3885 20.4889 14.7222 19.5621 15.7551C19.4141 15.9201 19.2093 16.0042 19.0037 16.0042Z" fill="#0D0C22"/>
<path d="M5.8125 12H4.6875C3.75698 12 3 11.243 3 10.3125V9.1875C3 8.25698 3.75698 7.5 4.6875 7.5H5.8125C6.74302 7.5 7.5 8.25698 7.5 9.1875V10.3125C7.5 11.243 6.74302 12 5.8125 12ZM4.6875 9C4.58409 9 4.5 9.08409 4.5 9.1875V10.3125C4.5 10.4159 4.58409 10.5 4.6875 10.5H5.8125C5.91591 10.5 6 10.4159 6 10.3125V9.1875C6 9.08409 5.91591 9 5.8125 9H4.6875Z" fill="#0D0C22"/>
</svg>
