<svg width="24" height="24" viewBox="0 0 24 24" fill="none" xmlns="http://www.w3.org/2000/svg">
<g clip-path="url(#clip0)">
<path d="M3.92286 9.79192C4.15482 10.0088 4.64797 10.056 4.92288 9.73383L6.68286 7.72583C6.93852 7.43419 6.90906 6.99074 6.6171 6.73536C6.32518 6.48003 5.88126 6.50935 5.62565 6.80104L4.3361 8.27228L3.99045 7.95985C3.70266 7.69978 3.25841 7.72194 2.99802 8.00941C2.73767 8.29687 2.75988 8.7407 3.04763 9.00081L3.92286 9.79192Z" fill="#B1B1B8"/>
<path d="M12.5693 8.54102H8.51512C8.12709 8.54102 7.8125 8.85528 7.8125 9.24294C7.8125 9.6306 8.12709 9.94485 8.51512 9.94485H12.5693C12.9574 9.94485 13.2719 9.6306 13.2719 9.24294C13.2719 8.85528 12.9574 8.54102 12.5693 8.54102Z" fill="#B1B1B8"/>
<path d="M12.5696 11.4531H3.46239C3.07435 11.4531 2.75977 11.7674 2.75977 12.1551C2.75977 12.5427 3.07435 12.857 3.46239 12.857H12.5696C12.9576 12.857 13.2722 12.5427 13.2722 12.1551C13.2722 11.7674 12.9576 11.4531 12.5696 11.4531Z" fill="#B1B1B8"/>
<path d="M3.92286 17.8378C4.15482 18.0547 4.64797 18.1019 4.92288 17.7797L6.68286 15.7717C6.93852 15.4801 6.90906 15.0366 6.6171 14.7813C6.32518 14.5259 5.88126 14.5553 5.62565 14.8469L4.3361 16.3182L3.99045 16.0058C3.70266 15.7457 3.25837 15.7679 2.99802 16.0554C2.73767 16.3428 2.75988 16.7867 3.04763 17.0468L3.92286 17.8378Z" fill="#B1B1B8"/>
<path d="M12.5693 16.585H8.51512C8.12709 16.585 7.8125 16.8992 7.8125 17.2869C7.8125 17.6746 8.12709 17.9888 8.51512 17.9888H12.5693C12.9574 17.9888 13.2719 17.6746 13.2719 17.2869C13.2719 16.8992 12.9574 16.585 12.5693 16.585Z" fill="#B1B1B8"/>
<path d="M12.5696 19.4551H3.46239C3.07435 19.4551 2.75977 19.7693 2.75977 20.157C2.75977 20.5447 3.07435 20.8589 3.46239 20.8589H12.5696C12.9576 20.8589 13.2722 20.5447 13.2722 20.157C13.2722 19.7693 12.9576 19.4551 12.5696 19.4551Z" fill="#B1B1B8"/>
<path d="M22.2741 0H8.89534C8.76802 0.000608942 8.61584 0.0256692 8.46552 0.0841277C8.3234 0.0568658 8.17777 0.0427196 8.03003 0.0427196C7.42727 0.0427196 6.85843 0.275008 6.42838 0.696817C6.16873 0.951449 5.9772 1.25793 5.8637 1.59323H5.11273C4.58239 1.59323 4.14808 2.00693 4.11346 2.52814H1.63563C0.740201 2.52814 0.0117188 3.25587 0.0117188 4.15041V22.3778C0.0117188 23.2723 0.740201 24 1.63563 24H14.4245C15.1736 24 15.8055 23.4906 15.9922 22.8004H22.3922C23.2366 22.7492 24.0038 21.9826 23.988 21.0883V1.71211C23.988 0.768063 23.2192 0 22.2741 0ZM5.51529 2.99703H6.44641C6.82897 2.99703 7.14121 2.69129 7.14889 2.3092C7.15845 1.83348 7.55375 1.44647 8.03003 1.44647C8.50632 1.44647 8.90162 1.83348 8.91122 2.3092C8.9189 2.69129 9.23115 2.99703 9.6137 2.99703H10.5448V3.77015H5.51529V2.99703ZM14.6431 22.3777C14.6431 22.4982 14.5451 22.5962 14.4245 22.5962H1.63563C1.51506 22.5962 1.41697 22.4982 1.41697 22.3777V4.15036C1.41697 4.02993 1.51506 3.93194 1.63563 3.93194H4.11004V4.08108C4.11004 4.6837 4.6008 5.17399 5.20403 5.17399H10.8561C11.4593 5.17399 11.9501 4.68375 11.9501 4.08108V3.93194H14.4245C14.5451 3.93194 14.6431 4.02993 14.6431 4.15036V22.3777ZM22.5828 21.0882C22.5828 21.2448 22.4657 21.3762 22.3103 21.394C22.3036 21.3948 22.2968 21.3956 22.2901 21.3966H16.0484V4.15036C16.0484 3.25587 15.3199 2.52809 14.4245 2.52809H11.9462C11.9073 2.00623 11.4708 1.59318 10.9386 1.59318H10.1964C10.1746 1.52882 10.149 1.46586 10.1216 1.4038H22.2741C22.4443 1.4038 22.5828 1.54212 22.5828 1.71211V21.0882Z" fill="#B1B1B8"/>
</g>
<defs>
<clipPath id="clip0">
<rect width="24" height="24" fill="white"/>
</clipPath>
</defs>
</svg>
