<svg width="24" height="24" viewBox="0 0 24 24" fill="none" xmlns="http://www.w3.org/2000/svg">
<path d="M12 24C10.5525 24 9.375 22.8224 9.375 21.375V20.611C8.81892 20.442 8.28136 20.2192 7.76756 19.9448L7.22691 20.4855C6.73125 20.9811 6.07214 21.2541 5.37094 21.2541C4.66941 21.2541 4.01011 20.9811 3.5145 20.4855C2.49127 19.4616 2.49136 17.7963 3.51455 16.7731L4.0552 16.2325C3.78084 15.7187 3.55809 15.1811 3.38902 14.625H2.625C1.92408 14.625 1.26497 14.3519 0.769031 13.856C0.273094 13.36 0 12.7009 0 12C0 10.5526 1.17755 9.375 2.625 9.375H3.38902C3.55805 8.81892 3.78084 8.28136 4.0552 7.76756L3.51455 7.22691C3.01889 6.73125 2.74594 6.07214 2.74594 5.37094C2.74594 4.66945 3.01889 4.01016 3.5145 3.5145C4.53844 2.49117 6.20372 2.49131 7.22691 3.5145L7.76756 4.05516C8.28136 3.7808 8.81892 3.55805 9.375 3.38897V2.625C9.375 1.92412 9.64809 1.26502 10.144 0.769078C10.64 0.273141 11.2991 0 12 0C12.1744 0 12.3502 0.0175781 12.5226 0.0521719C13.7415 0.299812 14.625 1.38173 14.625 2.625V3.38897C15.1811 3.558 15.7186 3.7808 16.2324 4.05516L16.7731 3.5145C17.2687 3.01889 17.9279 2.74594 18.6291 2.74594C19.3306 2.74594 19.9899 3.01889 20.4855 3.5145C21.5087 4.53839 21.5086 6.20372 20.4855 7.22686L19.9448 7.76752C20.2192 8.28131 20.4419 8.81892 20.611 9.37495H21.375C22.0759 9.37495 22.735 9.64809 23.231 10.144C23.7269 10.64 24 11.2991 24 12C24 13.4474 22.8225 14.625 21.375 14.625H20.611C20.442 15.1811 20.2192 15.7186 19.9448 16.2324L20.4855 16.7731C20.9811 17.2687 21.254 17.9279 21.254 18.6291C21.254 19.3305 20.9811 19.9898 20.4855 20.4855C19.9735 20.9971 19.3011 21.2529 18.629 21.2529C17.9567 21.253 17.2847 20.9972 16.773 20.4855L16.2324 19.9449C15.7186 20.2192 15.181 20.442 14.625 20.6111V21.375C14.625 22.0759 14.3519 22.735 13.856 23.2309C13.4897 23.5972 13.0292 23.8449 12.5243 23.9475C12.5237 23.9476 12.5232 23.9477 12.5226 23.9478C12.3502 23.9824 12.1744 24 12 24ZM12.375 23.2125H12.3755H12.375ZM7.64414 18.2578C7.78069 18.2578 7.91803 18.295 8.04037 18.3712C8.73844 18.8059 9.49683 19.1202 10.2945 19.3052C10.6344 19.3841 10.875 19.6869 10.875 20.0358V21.375C10.875 21.9953 11.3797 22.5 12 22.5C12.075 22.5 12.151 22.4924 12.226 22.4775C12.4412 22.4337 12.6381 22.3275 12.7953 22.1703C13.0079 21.9577 13.125 21.6752 13.125 21.375V20.0358C13.125 19.6869 13.3656 19.384 13.7055 19.3052C14.5032 19.1201 15.2616 18.8059 15.9596 18.3712C16.2556 18.1868 16.6398 18.2308 16.8864 18.4775L17.8337 19.4248C18.2722 19.8633 18.9861 19.8633 19.425 19.4246C19.6371 19.2125 19.7541 18.9299 19.7541 18.629C19.7541 18.3285 19.6372 18.046 19.4248 17.8337L18.4775 16.8864C18.2309 16.6398 18.1868 16.2557 18.3712 15.9597C18.8059 15.2616 19.1202 14.5032 19.3052 13.7055C19.384 13.3657 19.6869 13.125 20.0358 13.125H21.375C21.9953 13.125 22.5 12.6203 22.5 12C22.5 11.6998 22.3829 11.4174 22.1703 11.2048C21.9577 10.9921 21.6752 10.875 21.375 10.875H20.0358C19.6869 10.875 19.384 10.6344 19.3052 10.2945C19.1202 9.49687 18.8059 8.73848 18.3712 8.04037C18.1868 7.74431 18.2309 7.36022 18.4775 7.11361L19.4249 6.16631C19.8634 5.7278 19.8633 5.01398 19.4247 4.57509C19.2126 4.36294 18.9299 4.24603 18.6291 4.24603C18.3285 4.24603 18.046 4.36298 17.8337 4.57528L16.8864 5.52258C16.6397 5.76928 16.2556 5.81325 15.9596 5.62889C15.2616 5.19417 14.5032 4.87992 13.7055 4.69486C13.3656 4.61597 13.125 4.31311 13.125 3.96422V2.625C13.125 2.09203 12.7468 1.62834 12.2257 1.52245C12.152 1.50769 12.0755 1.5 12 1.5C11.6998 1.5 11.4173 1.61709 11.2047 1.82972C10.9921 2.04234 10.875 2.32477 10.875 2.625V3.96422C10.875 4.31311 10.6344 4.61597 10.2945 4.69481C9.49683 4.87987 8.73844 5.19413 8.04037 5.62884C7.74445 5.81325 7.36022 5.76919 7.11361 5.52253L6.16627 4.57519C5.72775 4.13667 5.01394 4.13677 4.57505 4.57538C4.36289 4.78753 4.24594 5.07014 4.24594 5.37098C4.24594 5.6715 4.36284 5.95397 4.57519 6.16627L5.52248 7.11356C5.76914 7.36022 5.81316 7.74431 5.62884 8.04033C5.19413 8.73844 4.87983 9.49683 4.69481 10.2945C4.61602 10.6344 4.31316 10.875 3.96422 10.875H2.625C2.0047 10.875 1.5 11.3797 1.5 12C1.5 12.3002 1.61709 12.5827 1.82972 12.7953C2.0423 13.0079 2.32477 13.125 2.625 13.125H3.96422C4.31311 13.125 4.61597 13.3656 4.69481 13.7055C4.87983 14.5031 5.19408 15.2615 5.62884 15.9596C5.8132 16.2557 5.76914 16.6398 5.52248 16.8864L4.57514 17.8337C4.13662 18.2722 4.13667 18.986 4.57533 19.4249C4.78744 19.6371 5.07009 19.754 5.37094 19.754C5.67145 19.754 5.95397 19.637 6.16627 19.4247L7.11361 18.4774C7.25831 18.3328 7.45036 18.2578 7.64414 18.2578Z" fill="#B1B1B8"/>
<path d="M12 17.25C9.10514 17.25 6.75 14.8949 6.75 12C6.75 9.10514 9.10514 6.75 12 6.75C12.1491 6.75 12.2971 6.75633 12.4401 6.76875C13.7455 6.87605 14.9593 7.46789 15.8542 8.43506C16.7543 9.40772 17.25 10.6738 17.25 12C17.25 13.3262 16.7543 14.5923 15.8542 15.5649C14.9593 16.5321 13.7455 17.124 12.4365 17.2316C12.2971 17.2437 12.1491 17.25 12 17.25ZM12 8.25C9.93225 8.25 8.25 9.93225 8.25 12C8.25 14.0677 9.93225 15.75 12 15.75C12.1058 15.75 12.2101 15.7456 12.3099 15.7369C14.2405 15.5782 15.75 13.9369 15.75 12C15.75 10.0631 14.2405 8.4218 12.3135 8.26341C12.2101 8.25441 12.1058 8.25 12 8.25Z" fill="#B1B1B8"/>
</svg>
