<svg width="23" height="20" fill="none" xmlns="http://www.w3.org/2000/svg"><path d="M22.957 4.242c-.194-.404-.874-.303-1.36-.404h-1.07c.098-.404.292-.606.487-1.01.097-.404.291-.707.194-1.313L21.5.91c.097-.1.194-.505.097-.707C21.5 0 21.305 0 21.014 0c-.097 0-.195.101-.195.101-.388.404-.777 1.01-1.263 1.414h-.097c-.097 0 0 0-.097.101s-.292.202-.389.202c-.291.202-.486.404-.874.505-.486-.202-1.166-.303-1.846-.404-1.167.101-2.235.202-2.916.707-.874.303-1.457 1.01-2.04 1.616 0 .303-.292.404-.389.707 0 0 0 .102-.097.102 0 .202-.097.303-.097.505 0 .1.194.404 0 .505-.777-.101-1.458-.606-2.04-1.01-.68-.405-1.458-.607-2.041-1.112-.68-.303-1.263-.808-1.75-1.313-.194-.303-.485-.505-.68-.909-.388-.202-.194-.909-.68-.909-.291 0-.291.202-.388.404-.097.202-.389.202-.389.505 0 0 0 .101-.097.101-.195 1.111-.486 2.02-.486 3.334.097.404.292.707.583 1.01-.389.1-.68.202-.875.505-.097 1.11.39 1.616.68 2.323.098.404.39.707.584 1.01 0 .202.194.303.291.404 0 .101.097.101.097.202s.292.202.098.202c-.39.101-.972.101-1.264.404a2.154 2.154 0 000 1.111c0 .202.292.303.292.505.486.404 1.069.707 1.555 1.111.583.202 1.166.303 1.846.404-.097.303-.292.607-.583.707-.778.404-1.75.506-2.624.708-.583 0-.972.202-1.555.202-.291.1-.874.1-1.068.202-.098.1-.098.1-.195.202-.097.404.097.707.389.909 0 .303.194.303.389.404.097.202.291.303.388.404.486.505 1.263.808 1.847 1.11.777.203 1.554.405 2.429.506.874.101 1.846.101 2.72.202h.972c.486.101 1.166.101 1.846.101.097-.101.292-.101.486-.101.486-.303 1.166-.404 1.555-.707.583-.202.972-.606 1.555-.91.874-.807 1.846-1.312 2.429-2.423.194-.202.389-.405.389-.707.291-.202.388-.505.582-.708.39-.404.68-.909.972-1.414.292-.505.583-1.11.875-1.616 0-.404.291-.505.291-.909.195-.202.195-.707.389-.909 0-.303 0-.404.097-.606 0-1.313 0-2.424-.291-3.434.583-.202 1.166-.303 1.554-.607.778.304 1.263-.1 1.07-.707zm-3.304 4.04c-.194.91-.583 1.415-.971 2.021.097.404-.098.505-.098.91-.194.302-.291.706-.388 1.01-.195.302-.292.605-.486.908-.389.505-.777 1.111-1.166 1.617-.389.606-.875 1.01-1.263 1.515-.389.505-.875.909-1.36 1.313-.486.202-.875.404-1.264.707-.194.1-.486.202-.68.303-.194.1-.486.1-.68.303-1.069.1-2.235.202-3.498.1-.972-.1-2.04-.201-2.915-.403s-1.458-.707-2.235-1.01c.194-.202.583-.202.972-.202 0-.202.388 0 .388-.101.292.1.292-.101.486-.101.583-.202 1.166-.303 1.652-.606.291-.101.389-.404.68-.606 0-.202.097-.303.194-.404 0-.303.195-.404.098-.808.097-.202.291-.304.291-.708-.097-.1-.097-.303-.291-.404 0-.202-.39-.1-.39-.202-.29 0-.388 0-.582-.1-.194 0-.486.1-.486-.102-.777 0-1.263-.404-1.846-.707.389-.303.972-.404 1.263-.707.486-.1 1.069-.1 1.069-.707 0-.707-.777-.707-1.263-.808-.778-.707-1.166-1.717-1.75-2.525.195-.202.584-.202.68-.404.487.1.487-.303.681-.505 0-.505-.291-.606-.583-.808-.291-.202-.486-.505-.68-.707 0-.809 0-1.718.097-2.425.097 0 .097 0 .097.101.195.404.583.808.778 1.212.485.404.874.91 1.554 1.112.486.404 1.07.606 1.555 1.01.583.303 1.166.606 1.652.909.68.202 1.069.707 1.943.606l.583-.303c.292-.505-.097-1.111.097-1.616.292-.707.778-1.01 1.264-1.516.291-.202.583-.303.777-.505.291-.1.68-.202.972-.404.388 0 .68-.1.971-.1h1.264c.194.1.485.1.68.1.194.101.388.303.68.404.777.707 1.263 1.718 1.36 3.03 0 .304.097.708.097 1.314zm.292-5.656c-.097.303-.194.707-.583.808 0-.1-.097-.1-.097-.202 0-.202.194-.202.291-.303.097-.1.195-.303.389-.303 0-.1.097 0 0 0zM14.6 5.656c.194.102.291.304.485.405.098.202.292.303.583.404 0-.202.292 0 .39-.202.194 0 .194-.202.29-.303 0-.505-.096-1.01-.388-1.314-.68-.505-1.652 0-1.36 1.01z" fill="#231F20"/></svg>